PathFileType  4	(X/Y/Z) /Users/kristensteudel/Documents/NMBL_Research/BertecForceProcessing/anc_files/
DataRate	CameraRate	NumFrames	NumMarkers	Units	OrigDataRate	OrigDataStartFrame	OrigNumFrames
  200.0		  200.0		    5		     46		 mm	  200.0	      182	    724
Frame#	Time	r_knee			r_shank_antsup			r_ankle			r_calc			r_5meta			r_toe			L_knee			L_shank_antsup			L_ankle			L_calc			L_5meta			L_toe			r_sh2			r_sh3			r_sh4			L_sh2			L_sh3			r_thigh1			r_thigh2			r_thigh3			r_thigh4			r_thigh5			L_thigh1			L_thigh2			L_thigh3			L_thigh4			r.ASIS			r.PSIS			L.ASIS			L.PSIS			C7			R_Shoulder			L_Shoulder			Sternum			R_humerus			R_elbow_med			R_elbow_lat			R_forearm			R_wrist_radius			R_wrist_ulna			L_humerus			L_elbow_med			L_elbow_lat			L_forearm			L_wrist_radius			L_wrist_ulna			
		X1	Y1	Z1	X2	Y2	Z2	X3	Y3	Z3	X4	Y4	Z4	X5	Y5	Z5	X6	Y6	Z6	X7	Y7	Z7	X8	Y8	Z8	X9	Y9	Z9	X10	Y10	Z10	X11	Y11	Z11	X12	Y12	Z12	X13	Y13	Z13	X14	Y14	Z14	X15	Y15	Z15	X16	Y16	Z16	X17	Y17	Z17	X18	Y18	Z18	X19	Y19	Z19	X20	Y20	Z20	X21	Y21	Z21	X22	Y22	Z22	X23	Y23	Z23	X24	Y24	Z24	X25	Y25	Z25	X26	Y26	Z26	X27	Y27	Z27	X28	Y28	Z28	X29	Y29	Z29	X30	Y30	Z30	X31	Y31	Z31	X32	Y32	Z32	X33	Y33	Z33	X34	Y34	Z34	X35	Y35	Z35	X36	Y36	Z36	X37	Y37	Z37	X38	Y38	Z38	X39	Y39	Z39	X40	Y40	Z40	X41	Y41	Z41	X42	Y42	Z42	X43	Y43	Z43	X44	Y44	Z44	X45	Y45	Z45	X46	Y46	Z46	

182	0.90500	996.967	526.504	-160.142	898.328	469.606	-167.732	575.151	534.152	-175.087	550.140	617.807	-226.561	481.677	427.445	-154.999	500.849	388.672	-220.931	845.301	467.871	-450.525	817.149	344.230	-439.243	612.881	110.545	-371.638	547.834	90.996	-319.877	740.460	39.633	-403.995	783.399	49.660	-339.664	778.959	480.243	-168.567	901.623	535.274	-131.524	789.196	558.197	-143.554	742.377	390.677	-461.240	686.801	286.154	-431.997	983.394	757.027	-152.946	1029.652	653.579	-170.177	1013.930	608.355	-138.805	897.988	708.033	-98.805	947.083	604.307	-128.128	887.188	703.081	-483.158	901.120	568.342	-444.899	768.906	689.672	-495.778	790.043	557.099	-456.553	870.226	947.458	-174.485	662.551	1025.826	-231.162	840.808	963.680	-444.123	651.094	1032.450	-344.068	806.099	1503.288	-341.711	841.641	1483.111	-142.964	869.686	1445.906	-527.956	952.466	1380.704	-326.494	719.470	1302.977	-52.954	576.738	1229.856	-95.665	590.115	1271.813	-14.032	714.982	1134.162	-7.179	784.713	1044.380	-16.286	744.332	1024.430	11.884	770.900	1219.343	-609.806	643.785	1131.415	-573.361	683.986	1169.552	-651.973	828.747	1096.320	-611.770	918.831	1094.067	-532.266	904.206	1034.695	-575.294
183	0.91000	1010.659	537.431	-160.426	915.059	474.767	-166.511	587.872	521.091	-174.199	556.455	602.978	-226.439	502.455	408.107	-153.605	524.538	370.298	-219.096	827.537	463.122	-450.232	798.449	342.011	-438.353	587.856	114.461	-372.374	521.799	96.080	-320.350	713.090	39.838	-403.943	756.353	49.403	-339.716	795.397	479.687	-168.015	915.627	541.200	-132.349	802.337	558.331	-143.173	724.777	390.000	-461.317	665.091	286.937	-432.020	987.059	767.712	-154.103	1037.739	666.401	-169.905	1024.032	620.316	-138.732	903.930	714.937	-98.529	957.488	613.633	-127.817	879.866	698.073	-482.459	888.219	562.844	-444.909	761.567	689.617	-495.228	776.716	556.304	-456.083	869.122	949.303	-173.139	661.610	1027.253	-231.622	840.524	962.317	-443.760	650.639	1033.072	-345.364	804.924	1504.280	-341.830	837.592	1484.287	-142.297	872.875	1447.347	-527.005	951.575	1382.391	-324.221	712.947	1305.840	-53.546	571.079	1233.234	-99.102	582.998	1275.148	-17.347	706.024	1136.364	-8.310	775.042	1045.614	-15.573	733.974	1026.266	11.916	776.923	1219.582	-608.713	650.754	1130.458	-573.221	691.322	1168.229	-651.698	836.963	1097.273	-608.807	925.691	1097.228	-527.973	912.902	1037.304	-570.964
184	0.91500	1023.112	548.605	-160.171	931.306	480.633	-166.857	600.716	507.219	-174.237	563.447	586.538	-226.751	524.240	388.574	-152.509	549.204	352.047	-217.727	809.284	459.247	-449.827	778.935	341.016	-437.802	562.355	118.315	-372.956	496.217	101.457	-321.000	685.770	39.683	-404.000	729.180	49.225	-339.892	811.519	479.277	-167.422	928.740	547.082	-133.024	814.366	558.079	-142.916	706.689	391.014	-460.766	644.832	289.504	-432.290	990.241	778.306	-153.757	1045.126	679.370	-169.654	1033.112	632.496	-138.623	909.408	722.267	-98.257	966.912	623.103	-128.401	872.297	693.142	-481.512	874.594	557.310	-445.294	753.602	690.174	-494.823	762.617	555.392	-456.130	868.213	952.270	-172.187	661.095	1028.911	-232.343	840.279	961.334	-443.274	650.102	1033.769	-346.607	803.388	1505.620	-342.139	833.085	1486.119	-141.619	875.614	1449.656	-525.761	950.720	1384.801	-321.863	706.515	1309.326	-54.161	565.229	1237.161	-102.570	575.658	1279.048	-20.604	697.256	1139.263	-9.083	765.678	1047.889	-15.228	723.873	1028.957	11.481	782.583	1220.687	-607.512	657.280	1129.811	-572.889	698.115	1167.830	-651.237	844.664	1099.555	-605.735	932.235	1101.479	-523.858	921.539	1041.164	-566.406
185	0.92000	1034.878	560.459	-160.678	946.717	486.897	-167.252	614.272	493.190	-174.655	571.277	569.008	-227.203	546.933	369.070	-151.500	574.696	334.170	-216.199	790.517	456.978	-449.264	759.035	340.994	-437.655	537.491	122.783	-373.934	470.766	107.696	-321.717	658.429	39.962	-404.073	701.815	48.939	-340.152	827.285	478.631	-167.092	940.549	553.523	-133.845	825.651	557.711	-142.565	688.166	393.230	-459.991	623.948	292.792	-432.940	993.149	788.835	-153.242	1051.498	692.124	-169.068	1041.131	644.510	-138.568	914.194	729.477	-98.210	975.280	632.579	-128.498	864.271	688.494	-480.630	861.935	552.643	-446.170	745.848	691.149	-493.948	748.350	556.880	-454.428	867.203	956.281	-171.126	660.817	1030.904	-232.845	840.554	960.853	-442.359	649.718	1034.680	-347.998	801.912	1507.259	-342.487	828.014	1488.494	-141.161	877.884	1452.545	-524.349	949.874	1387.648	-319.485	699.786	1313.258	-54.800	559.291	1241.704	-106.144	568.769	1283.491	-23.853	688.618	1142.845	-9.961	756.763	1051.058	-14.914	714.182	1032.373	10.898	787.714	1222.580	-606.307	663.455	1130.252	-572.342	704.409	1168.297	-650.744	851.731	1103.001	-602.652	938.252	1106.635	-519.653	929.234	1045.906	-562.057
186	0.92500	1045.638	572.658	-161.562	961.263	493.616	-167.380	628.368	478.055	-174.437	579.990	550.472	-228.197	571.050	350.681	-148.268	601.403	316.874	-214.489	771.189	456.962	-449.536	738.722	341.871	-437.819	512.584	127.530	-374.986	445.759	114.696	-323.014	631.276	40.207	-404.075	675.100	48.884	-339.693	842.772	477.895	-166.666	950.940	559.981	-134.945	835.991	556.742	-142.605	669.052	396.057	-459.466	602.469	296.978	-432.248	995.675	799.205	-152.363	1057.715	704.674	-169.357	1048.258	656.457	-138.666	918.611	736.986	-97.932	982.806	642.112	-128.649	856.064	684.723	-479.400	847.053	548.785	-445.788	737.451	692.857	-493.705	733.886	558.688	-453.845	866.893	960.658	-170.221	660.544	1033.189	-233.994	841.346	961.561	-441.384	649.773	1036.047	-348.975	800.404	1509.464	-342.281	823.322	1491.258	-141.044	879.373	1456.313	-522.958	949.122	1391.079	-316.993	693.508	1317.672	-55.821	553.619	1246.846	-109.770	561.805	1288.476	-27.271	680.463	1147.137	-11.097	747.423	1054.784	-14.735	705.050	1036.532	10.046	792.600	1225.202	-605.198	669.355	1130.925	-571.755	710.397	1169.368	-649.951	858.157	1107.209	-599.550	943.790	1112.684	-515.561	936.099	1051.679	-557.684
